<mxfile host="app.diagrams.net" agent="Mozilla/5.0 (Windows NT 10.0; Win64; x64; rv:129.0) Gecko/20100101 Firefox/129.0" version="24.7.10" pages="6">
  <diagram name="regristrasi siswa" id="CkKdN2FSt63T292Gi2Ng">
    <mxGraphModel dx="634" dy="373" grid="1" gridSize="10" guides="1" tooltips="1" connect="1" arrows="1" fold="1" page="1" pageScale="1" pageWidth="850" pageHeight="1100" math="0" shadow="0">
      <root>
        <mxCell id="0" />
        <mxCell id="1" parent="0" />
        <mxCell id="ct2zQ7y7BZkQiQ98YBwY-1" value="siswa" style="swimlane;whiteSpace=wrap;fontStyle=0" vertex="1" parent="1">
          <mxGeometry x="164.5" y="128" width="315.5" height="652" as="geometry" />
        </mxCell>
        <mxCell id="ct2zQ7y7BZkQiQ98YBwY-2" style="edgeStyle=orthogonalEdgeStyle;rounded=0;orthogonalLoop=1;jettySize=auto;html=1;exitX=0.5;exitY=1;exitDx=0;exitDy=0;entryX=0.5;entryY=0;entryDx=0;entryDy=0;" edge="1" parent="ct2zQ7y7BZkQiQ98YBwY-1" source="ct2zQ7y7BZkQiQ98YBwY-3" target="ct2zQ7y7BZkQiQ98YBwY-4">
          <mxGeometry relative="1" as="geometry" />
        </mxCell>
        <mxCell id="ct2zQ7y7BZkQiQ98YBwY-3" value="" style="ellipse;shape=startState;fillColor=#000000;strokeColor=#ff0000;" vertex="1" parent="ct2zQ7y7BZkQiQ98YBwY-1">
          <mxGeometry x="120" y="40" width="40" height="40" as="geometry" />
        </mxCell>
        <mxCell id="ct2zQ7y7BZkQiQ98YBwY-4" value="Membuka Website &quot;Smart School&quot;" style="rounded=0;whiteSpace=wrap;html=1;" vertex="1" parent="ct2zQ7y7BZkQiQ98YBwY-1">
          <mxGeometry x="80" y="102" width="120" height="60" as="geometry" />
        </mxCell>
        <mxCell id="ct2zQ7y7BZkQiQ98YBwY-5" value="membuka halaman registrasi" style="rounded=0;whiteSpace=wrap;html=1;" vertex="1" parent="ct2zQ7y7BZkQiQ98YBwY-1">
          <mxGeometry x="80" y="192" width="120" height="38" as="geometry" />
        </mxCell>
        <mxCell id="ct2zQ7y7BZkQiQ98YBwY-27" value="" style="edgeStyle=orthogonalEdgeStyle;rounded=0;orthogonalLoop=1;jettySize=auto;html=1;" edge="1" parent="ct2zQ7y7BZkQiQ98YBwY-1" source="ct2zQ7y7BZkQiQ98YBwY-20" target="ct2zQ7y7BZkQiQ98YBwY-21">
          <mxGeometry relative="1" as="geometry" />
        </mxCell>
        <mxCell id="ct2zQ7y7BZkQiQ98YBwY-20" value="memasukan data pendaftaran" style="rounded=0;whiteSpace=wrap;html=1;" vertex="1" parent="ct2zQ7y7BZkQiQ98YBwY-1">
          <mxGeometry x="80" y="302" width="120" height="38" as="geometry" />
        </mxCell>
        <mxCell id="ct2zQ7y7BZkQiQ98YBwY-21" value="mengirim data" style="rounded=0;whiteSpace=wrap;html=1;" vertex="1" parent="ct2zQ7y7BZkQiQ98YBwY-1">
          <mxGeometry x="80" y="362" width="120" height="38" as="geometry" />
        </mxCell>
        <mxCell id="ct2zQ7y7BZkQiQ98YBwY-6" value="SISTEM" style="swimlane;whiteSpace=wrap" vertex="1" parent="1">
          <mxGeometry x="480" y="128" width="310" height="652" as="geometry" />
        </mxCell>
        <mxCell id="ct2zQ7y7BZkQiQ98YBwY-7" value="Menampilkan Halaman Website Smart School" style="rounded=0;whiteSpace=wrap;html=1;" vertex="1" parent="ct2zQ7y7BZkQiQ98YBwY-6">
          <mxGeometry x="95.5" y="102" width="120" height="60" as="geometry" />
        </mxCell>
        <mxCell id="ct2zQ7y7BZkQiQ98YBwY-32" value="" style="edgeStyle=orthogonalEdgeStyle;rounded=0;orthogonalLoop=1;jettySize=auto;html=1;" edge="1" parent="ct2zQ7y7BZkQiQ98YBwY-6" source="ct2zQ7y7BZkQiQ98YBwY-9" target="ct2zQ7y7BZkQiQ98YBwY-14">
          <mxGeometry relative="1" as="geometry" />
        </mxCell>
        <mxCell id="ct2zQ7y7BZkQiQ98YBwY-9" value="Validasi Data" style="rounded=0;whiteSpace=wrap;html=1;" vertex="1" parent="ct2zQ7y7BZkQiQ98YBwY-6">
          <mxGeometry x="97.75" y="362" width="120" height="38" as="geometry" />
        </mxCell>
        <mxCell id="ct2zQ7y7BZkQiQ98YBwY-10" style="edgeStyle=orthogonalEdgeStyle;rounded=0;orthogonalLoop=1;jettySize=auto;html=1;entryX=0.429;entryY=0.018;entryDx=0;entryDy=0;entryPerimeter=0;exitX=0;exitY=0.5;exitDx=0;exitDy=0;" edge="1" parent="ct2zQ7y7BZkQiQ98YBwY-6" source="ct2zQ7y7BZkQiQ98YBwY-14" target="ct2zQ7y7BZkQiQ98YBwY-15">
          <mxGeometry relative="1" as="geometry">
            <mxPoint x="75.5" y="482.0000000000001" as="targetPoint" />
            <mxPoint x="117.5" y="492" as="sourcePoint" />
            <Array as="points">
              <mxPoint x="118" y="472" />
              <mxPoint x="76" y="472" />
              <mxPoint x="76" y="513" />
              <mxPoint x="77" y="513" />
            </Array>
          </mxGeometry>
        </mxCell>
        <mxCell id="ct2zQ7y7BZkQiQ98YBwY-11" value="Salah" style="edgeLabel;html=1;align=center;verticalAlign=middle;resizable=0;points=[];" connectable="0" vertex="1" parent="ct2zQ7y7BZkQiQ98YBwY-10">
          <mxGeometry x="0.2864" relative="1" as="geometry">
            <mxPoint as="offset" />
          </mxGeometry>
        </mxCell>
        <mxCell id="ct2zQ7y7BZkQiQ98YBwY-12" style="edgeStyle=orthogonalEdgeStyle;rounded=0;orthogonalLoop=1;jettySize=auto;html=1;exitX=1;exitY=0.5;exitDx=0;exitDy=0;entryX=0.5;entryY=0;entryDx=0;entryDy=0;" edge="1" parent="ct2zQ7y7BZkQiQ98YBwY-6" source="ct2zQ7y7BZkQiQ98YBwY-14" target="ct2zQ7y7BZkQiQ98YBwY-17">
          <mxGeometry relative="1" as="geometry">
            <mxPoint x="235.5" y="482.0000000000001" as="targetPoint" />
          </mxGeometry>
        </mxCell>
        <mxCell id="ct2zQ7y7BZkQiQ98YBwY-13" value="Benar" style="edgeLabel;html=1;align=center;verticalAlign=middle;resizable=0;points=[];" connectable="0" vertex="1" parent="ct2zQ7y7BZkQiQ98YBwY-12">
          <mxGeometry x="0.3393" relative="1" as="geometry">
            <mxPoint as="offset" />
          </mxGeometry>
        </mxCell>
        <mxCell id="ct2zQ7y7BZkQiQ98YBwY-14" value="" style="rhombus;whiteSpace=wrap;html=1;" vertex="1" parent="ct2zQ7y7BZkQiQ98YBwY-6">
          <mxGeometry x="117.75" y="442" width="80" height="58" as="geometry" />
        </mxCell>
        <mxCell id="ct2zQ7y7BZkQiQ98YBwY-15" value="Menampilkan Pesan Error Login" style="rounded=0;whiteSpace=wrap;html=1;" vertex="1" parent="ct2zQ7y7BZkQiQ98YBwY-6">
          <mxGeometry x="25.5" y="532" width="120" height="48" as="geometry" />
        </mxCell>
        <mxCell id="ct2zQ7y7BZkQiQ98YBwY-16" style="edgeStyle=orthogonalEdgeStyle;rounded=0;orthogonalLoop=1;jettySize=auto;html=1;exitX=0.5;exitY=1;exitDx=0;exitDy=0;entryX=0.5;entryY=0;entryDx=0;entryDy=0;" edge="1" parent="ct2zQ7y7BZkQiQ98YBwY-6" source="ct2zQ7y7BZkQiQ98YBwY-17" target="ct2zQ7y7BZkQiQ98YBwY-18">
          <mxGeometry relative="1" as="geometry" />
        </mxCell>
        <mxCell id="ct2zQ7y7BZkQiQ98YBwY-17" value="Menampilkan Dashboard Admin" style="rounded=0;whiteSpace=wrap;html=1;" vertex="1" parent="ct2zQ7y7BZkQiQ98YBwY-6">
          <mxGeometry x="175.5" y="532" width="120" height="48" as="geometry" />
        </mxCell>
        <mxCell id="ct2zQ7y7BZkQiQ98YBwY-18" value="" style="ellipse;shape=startState;fillColor=#000000;strokeColor=#ff0000;" vertex="1" parent="ct2zQ7y7BZkQiQ98YBwY-6">
          <mxGeometry x="215.5" y="612" width="40" height="40" as="geometry" />
        </mxCell>
        <mxCell id="ct2zQ7y7BZkQiQ98YBwY-22" value="menampilkan halaman regristrasi" style="rounded=0;whiteSpace=wrap;html=1;" vertex="1" parent="ct2zQ7y7BZkQiQ98YBwY-6">
          <mxGeometry x="101.61999999999999" y="252" width="112.25" height="42" as="geometry" />
        </mxCell>
        <mxCell id="ct2zQ7y7BZkQiQ98YBwY-19" style="edgeStyle=orthogonalEdgeStyle;rounded=0;orthogonalLoop=1;jettySize=auto;html=1;entryX=0;entryY=0.5;entryDx=0;entryDy=0;" edge="1" parent="1" source="ct2zQ7y7BZkQiQ98YBwY-4" target="ct2zQ7y7BZkQiQ98YBwY-7">
          <mxGeometry relative="1" as="geometry" />
        </mxCell>
        <mxCell id="ct2zQ7y7BZkQiQ98YBwY-24" style="edgeStyle=orthogonalEdgeStyle;rounded=0;orthogonalLoop=1;jettySize=auto;html=1;entryX=0;entryY=0.5;entryDx=0;entryDy=0;" edge="1" parent="1" source="ct2zQ7y7BZkQiQ98YBwY-5" target="ct2zQ7y7BZkQiQ98YBwY-22">
          <mxGeometry relative="1" as="geometry">
            <Array as="points">
              <mxPoint x="310" y="401" />
            </Array>
          </mxGeometry>
        </mxCell>
        <mxCell id="ct2zQ7y7BZkQiQ98YBwY-25" style="edgeStyle=orthogonalEdgeStyle;rounded=0;orthogonalLoop=1;jettySize=auto;html=1;entryX=1;entryY=0.5;entryDx=0;entryDy=0;" edge="1" parent="1" source="ct2zQ7y7BZkQiQ98YBwY-7" target="ct2zQ7y7BZkQiQ98YBwY-5">
          <mxGeometry relative="1" as="geometry">
            <Array as="points">
              <mxPoint x="600" y="339" />
            </Array>
          </mxGeometry>
        </mxCell>
        <mxCell id="ct2zQ7y7BZkQiQ98YBwY-26" style="edgeStyle=orthogonalEdgeStyle;rounded=0;orthogonalLoop=1;jettySize=auto;html=1;entryX=1;entryY=0.5;entryDx=0;entryDy=0;" edge="1" parent="1" source="ct2zQ7y7BZkQiQ98YBwY-22" target="ct2zQ7y7BZkQiQ98YBwY-20">
          <mxGeometry relative="1" as="geometry">
            <Array as="points">
              <mxPoint x="602" y="449" />
            </Array>
          </mxGeometry>
        </mxCell>
        <mxCell id="ct2zQ7y7BZkQiQ98YBwY-28" style="edgeStyle=orthogonalEdgeStyle;rounded=0;orthogonalLoop=1;jettySize=auto;html=1;entryX=0;entryY=0.5;entryDx=0;entryDy=0;" edge="1" parent="1" source="ct2zQ7y7BZkQiQ98YBwY-21" target="ct2zQ7y7BZkQiQ98YBwY-9">
          <mxGeometry relative="1" as="geometry" />
        </mxCell>
      </root>
    </mxGraphModel>
  </diagram>
  <diagram id="B6uVPoHF_zHf-7rmHl5D" name="login siswa">
    <mxGraphModel dx="766" dy="426" grid="1" gridSize="10" guides="1" tooltips="1" connect="1" arrows="1" fold="1" page="1" pageScale="1" pageWidth="850" pageHeight="1100" math="0" shadow="0">
      <root>
        <mxCell id="0" />
        <mxCell id="1" parent="0" />
        <mxCell id="0dLkA1yNlthL-5BfM1e3-1" value="siswa" style="swimlane;whiteSpace=wrap;fontStyle=0" vertex="1" parent="1">
          <mxGeometry x="164.5" y="128" width="280" height="652" as="geometry" />
        </mxCell>
        <mxCell id="0dLkA1yNlthL-5BfM1e3-2" style="edgeStyle=orthogonalEdgeStyle;rounded=0;orthogonalLoop=1;jettySize=auto;html=1;exitX=0.5;exitY=1;exitDx=0;exitDy=0;entryX=0.5;entryY=0;entryDx=0;entryDy=0;" edge="1" parent="0dLkA1yNlthL-5BfM1e3-1" source="0dLkA1yNlthL-5BfM1e3-3" target="0dLkA1yNlthL-5BfM1e3-4">
          <mxGeometry relative="1" as="geometry" />
        </mxCell>
        <mxCell id="0dLkA1yNlthL-5BfM1e3-3" value="" style="ellipse;shape=startState;fillColor=#000000;strokeColor=#ff0000;" vertex="1" parent="0dLkA1yNlthL-5BfM1e3-1">
          <mxGeometry x="120" y="40" width="40" height="40" as="geometry" />
        </mxCell>
        <mxCell id="0dLkA1yNlthL-5BfM1e3-4" value="Membuka Website &quot;Smart School&quot;" style="rounded=0;whiteSpace=wrap;html=1;" vertex="1" parent="0dLkA1yNlthL-5BfM1e3-1">
          <mxGeometry x="80" y="102" width="120" height="60" as="geometry" />
        </mxCell>
        <mxCell id="0dLkA1yNlthL-5BfM1e3-5" value="Memasukan Username dan Password" style="rounded=0;whiteSpace=wrap;html=1;" vertex="1" parent="0dLkA1yNlthL-5BfM1e3-1">
          <mxGeometry x="80" y="202" width="120" height="60" as="geometry" />
        </mxCell>
        <mxCell id="0dLkA1yNlthL-5BfM1e3-6" value="SISTEM" style="swimlane;whiteSpace=wrap" vertex="1" parent="1">
          <mxGeometry x="444.5" y="128" width="315.5" height="652" as="geometry" />
        </mxCell>
        <mxCell id="0dLkA1yNlthL-5BfM1e3-7" value="Menampilkan Halaman Website Smart School" style="rounded=0;whiteSpace=wrap;html=1;" vertex="1" parent="0dLkA1yNlthL-5BfM1e3-6">
          <mxGeometry x="95.5" y="102" width="120" height="60" as="geometry" />
        </mxCell>
        <mxCell id="0dLkA1yNlthL-5BfM1e3-8" style="edgeStyle=orthogonalEdgeStyle;rounded=0;orthogonalLoop=1;jettySize=auto;html=1;exitX=0.5;exitY=1;exitDx=0;exitDy=0;entryX=0.5;entryY=0;entryDx=0;entryDy=0;" edge="1" parent="0dLkA1yNlthL-5BfM1e3-6" source="0dLkA1yNlthL-5BfM1e3-9" target="0dLkA1yNlthL-5BfM1e3-14">
          <mxGeometry relative="1" as="geometry" />
        </mxCell>
        <mxCell id="0dLkA1yNlthL-5BfM1e3-9" value="Validasi Data" style="rounded=0;whiteSpace=wrap;html=1;" vertex="1" parent="0dLkA1yNlthL-5BfM1e3-6">
          <mxGeometry x="95.5" y="312" width="120" height="38" as="geometry" />
        </mxCell>
        <mxCell id="0dLkA1yNlthL-5BfM1e3-10" style="edgeStyle=orthogonalEdgeStyle;rounded=0;orthogonalLoop=1;jettySize=auto;html=1;exitX=0;exitY=0.5;exitDx=0;exitDy=0;" edge="1" parent="0dLkA1yNlthL-5BfM1e3-6" source="0dLkA1yNlthL-5BfM1e3-14">
          <mxGeometry relative="1" as="geometry">
            <mxPoint x="75.5" y="482.0000000000001" as="targetPoint" />
          </mxGeometry>
        </mxCell>
        <mxCell id="0dLkA1yNlthL-5BfM1e3-11" value="Salah" style="edgeLabel;html=1;align=center;verticalAlign=middle;resizable=0;points=[];" connectable="0" vertex="1" parent="0dLkA1yNlthL-5BfM1e3-10">
          <mxGeometry x="0.2864" relative="1" as="geometry">
            <mxPoint as="offset" />
          </mxGeometry>
        </mxCell>
        <mxCell id="0dLkA1yNlthL-5BfM1e3-12" style="edgeStyle=orthogonalEdgeStyle;rounded=0;orthogonalLoop=1;jettySize=auto;html=1;exitX=1;exitY=0.5;exitDx=0;exitDy=0;" edge="1" parent="0dLkA1yNlthL-5BfM1e3-6" source="0dLkA1yNlthL-5BfM1e3-14">
          <mxGeometry relative="1" as="geometry">
            <mxPoint x="235.5" y="482.0000000000001" as="targetPoint" />
          </mxGeometry>
        </mxCell>
        <mxCell id="0dLkA1yNlthL-5BfM1e3-13" value="Benar" style="edgeLabel;html=1;align=center;verticalAlign=middle;resizable=0;points=[];" connectable="0" vertex="1" parent="0dLkA1yNlthL-5BfM1e3-12">
          <mxGeometry x="0.3393" relative="1" as="geometry">
            <mxPoint as="offset" />
          </mxGeometry>
        </mxCell>
        <mxCell id="0dLkA1yNlthL-5BfM1e3-14" value="" style="rhombus;whiteSpace=wrap;html=1;" vertex="1" parent="0dLkA1yNlthL-5BfM1e3-6">
          <mxGeometry x="115.5" y="392" width="80" height="58" as="geometry" />
        </mxCell>
        <mxCell id="0dLkA1yNlthL-5BfM1e3-15" value="Menampilkan Pesan Error Login" style="rounded=0;whiteSpace=wrap;html=1;" vertex="1" parent="0dLkA1yNlthL-5BfM1e3-6">
          <mxGeometry x="20.5" y="482" width="120" height="48" as="geometry" />
        </mxCell>
        <mxCell id="0dLkA1yNlthL-5BfM1e3-16" style="edgeStyle=orthogonalEdgeStyle;rounded=0;orthogonalLoop=1;jettySize=auto;html=1;exitX=0.5;exitY=1;exitDx=0;exitDy=0;entryX=0.5;entryY=0;entryDx=0;entryDy=0;" edge="1" parent="0dLkA1yNlthL-5BfM1e3-6" source="0dLkA1yNlthL-5BfM1e3-17" target="0dLkA1yNlthL-5BfM1e3-18">
          <mxGeometry relative="1" as="geometry" />
        </mxCell>
        <mxCell id="0dLkA1yNlthL-5BfM1e3-17" value="Menampilkan halaman utama siswa" style="rounded=0;whiteSpace=wrap;html=1;" vertex="1" parent="0dLkA1yNlthL-5BfM1e3-6">
          <mxGeometry x="175.5" y="482" width="120" height="48" as="geometry" />
        </mxCell>
        <mxCell id="0dLkA1yNlthL-5BfM1e3-18" value="" style="ellipse;shape=startState;fillColor=#000000;strokeColor=#ff0000;" vertex="1" parent="0dLkA1yNlthL-5BfM1e3-6">
          <mxGeometry x="215.5" y="562" width="40" height="40" as="geometry" />
        </mxCell>
        <mxCell id="0dLkA1yNlthL-5BfM1e3-19" style="edgeStyle=orthogonalEdgeStyle;rounded=0;orthogonalLoop=1;jettySize=auto;html=1;entryX=1;entryY=0.5;entryDx=0;entryDy=0;" edge="1" parent="1" source="0dLkA1yNlthL-5BfM1e3-7" target="0dLkA1yNlthL-5BfM1e3-5">
          <mxGeometry relative="1" as="geometry">
            <Array as="points">
              <mxPoint x="600" y="360" />
            </Array>
          </mxGeometry>
        </mxCell>
        <mxCell id="0dLkA1yNlthL-5BfM1e3-20" style="edgeStyle=orthogonalEdgeStyle;rounded=0;orthogonalLoop=1;jettySize=auto;html=1;entryX=0;entryY=0.5;entryDx=0;entryDy=0;" edge="1" parent="1" source="0dLkA1yNlthL-5BfM1e3-4" target="0dLkA1yNlthL-5BfM1e3-7">
          <mxGeometry relative="1" as="geometry" />
        </mxCell>
        <mxCell id="0dLkA1yNlthL-5BfM1e3-21" style="edgeStyle=orthogonalEdgeStyle;rounded=0;orthogonalLoop=1;jettySize=auto;html=1;entryX=0;entryY=0.5;entryDx=0;entryDy=0;" edge="1" parent="1" source="0dLkA1yNlthL-5BfM1e3-5" target="0dLkA1yNlthL-5BfM1e3-9">
          <mxGeometry relative="1" as="geometry">
            <Array as="points">
              <mxPoint x="305" y="459" />
            </Array>
          </mxGeometry>
        </mxCell>
      </root>
    </mxGraphModel>
  </diagram>
  <diagram id="_cswoCJEPNgJfyQ7k2DU" name="melihat data jadwal pelajaran">
    <mxGraphModel dx="901" dy="501" grid="1" gridSize="10" guides="1" tooltips="1" connect="1" arrows="1" fold="1" page="1" pageScale="1" pageWidth="850" pageHeight="1100" math="0" shadow="0">
      <root>
        <mxCell id="0" />
        <mxCell id="1" parent="0" />
        <mxCell id="lEeLGfpVvQIhKDC0VNKP-1" value="siswa" style="swimlane;whiteSpace=wrap;fontStyle=0;startSize=23;" vertex="1" parent="1">
          <mxGeometry x="164.5" y="128" width="280" height="972" as="geometry" />
        </mxCell>
        <mxCell id="lEeLGfpVvQIhKDC0VNKP-2" style="edgeStyle=orthogonalEdgeStyle;rounded=0;orthogonalLoop=1;jettySize=auto;html=1;exitX=0.5;exitY=1;exitDx=0;exitDy=0;entryX=0.5;entryY=0;entryDx=0;entryDy=0;" edge="1" parent="lEeLGfpVvQIhKDC0VNKP-1" source="lEeLGfpVvQIhKDC0VNKP-3" target="lEeLGfpVvQIhKDC0VNKP-4">
          <mxGeometry relative="1" as="geometry" />
        </mxCell>
        <mxCell id="lEeLGfpVvQIhKDC0VNKP-3" value="" style="ellipse;shape=startState;fillColor=#000000;strokeColor=#ff0000;" vertex="1" parent="lEeLGfpVvQIhKDC0VNKP-1">
          <mxGeometry x="120" y="40" width="40" height="40" as="geometry" />
        </mxCell>
        <mxCell id="lEeLGfpVvQIhKDC0VNKP-4" value="Membuka Website &quot;Smart School&quot;" style="rounded=0;whiteSpace=wrap;html=1;" vertex="1" parent="lEeLGfpVvQIhKDC0VNKP-1">
          <mxGeometry x="80" y="102" width="120" height="60" as="geometry" />
        </mxCell>
        <mxCell id="lEeLGfpVvQIhKDC0VNKP-5" value="siswa melakukan login" style="rounded=0;whiteSpace=wrap;html=1;" vertex="1" parent="lEeLGfpVvQIhKDC0VNKP-1">
          <mxGeometry x="80" y="202" width="120" height="60" as="geometry" />
        </mxCell>
        <mxCell id="lEeLGfpVvQIhKDC0VNKP-6" value="membuka halaman mjadwal pelajaran" style="rounded=0;whiteSpace=wrap;html=1;" vertex="1" parent="lEeLGfpVvQIhKDC0VNKP-1">
          <mxGeometry x="55.5" y="552" width="120" height="48" as="geometry" />
        </mxCell>
        <mxCell id="lEeLGfpVvQIhKDC0VNKP-8" value="SISTEM" style="swimlane;whiteSpace=wrap" vertex="1" parent="1">
          <mxGeometry x="444.5" y="128" width="315.5" height="972" as="geometry" />
        </mxCell>
        <mxCell id="lEeLGfpVvQIhKDC0VNKP-9" value="Menampilkan Halaman Website Smart School" style="rounded=0;whiteSpace=wrap;html=1;" vertex="1" parent="lEeLGfpVvQIhKDC0VNKP-8">
          <mxGeometry x="95.5" y="102" width="120" height="60" as="geometry" />
        </mxCell>
        <mxCell id="lEeLGfpVvQIhKDC0VNKP-10" style="edgeStyle=orthogonalEdgeStyle;rounded=0;orthogonalLoop=1;jettySize=auto;html=1;exitX=0.5;exitY=1;exitDx=0;exitDy=0;entryX=0.5;entryY=0;entryDx=0;entryDy=0;" edge="1" parent="lEeLGfpVvQIhKDC0VNKP-8" source="lEeLGfpVvQIhKDC0VNKP-11" target="lEeLGfpVvQIhKDC0VNKP-16">
          <mxGeometry relative="1" as="geometry" />
        </mxCell>
        <mxCell id="lEeLGfpVvQIhKDC0VNKP-11" value="Validasi Data" style="rounded=0;whiteSpace=wrap;html=1;" vertex="1" parent="lEeLGfpVvQIhKDC0VNKP-8">
          <mxGeometry x="95.5" y="312" width="120" height="38" as="geometry" />
        </mxCell>
        <mxCell id="lEeLGfpVvQIhKDC0VNKP-12" style="edgeStyle=orthogonalEdgeStyle;rounded=0;orthogonalLoop=1;jettySize=auto;html=1;exitX=0;exitY=0.5;exitDx=0;exitDy=0;" edge="1" parent="lEeLGfpVvQIhKDC0VNKP-8" source="lEeLGfpVvQIhKDC0VNKP-16">
          <mxGeometry relative="1" as="geometry">
            <mxPoint x="75.5" y="482.0000000000001" as="targetPoint" />
          </mxGeometry>
        </mxCell>
        <mxCell id="lEeLGfpVvQIhKDC0VNKP-13" value="Salah" style="edgeLabel;html=1;align=center;verticalAlign=middle;resizable=0;points=[];" connectable="0" vertex="1" parent="lEeLGfpVvQIhKDC0VNKP-12">
          <mxGeometry x="0.2864" relative="1" as="geometry">
            <mxPoint as="offset" />
          </mxGeometry>
        </mxCell>
        <mxCell id="lEeLGfpVvQIhKDC0VNKP-14" style="edgeStyle=orthogonalEdgeStyle;rounded=0;orthogonalLoop=1;jettySize=auto;html=1;exitX=1;exitY=0.5;exitDx=0;exitDy=0;" edge="1" parent="lEeLGfpVvQIhKDC0VNKP-8" source="lEeLGfpVvQIhKDC0VNKP-16">
          <mxGeometry relative="1" as="geometry">
            <mxPoint x="235.5" y="482.0000000000001" as="targetPoint" />
          </mxGeometry>
        </mxCell>
        <mxCell id="lEeLGfpVvQIhKDC0VNKP-15" value="Benar" style="edgeLabel;html=1;align=center;verticalAlign=middle;resizable=0;points=[];" connectable="0" vertex="1" parent="lEeLGfpVvQIhKDC0VNKP-14">
          <mxGeometry x="0.3393" relative="1" as="geometry">
            <mxPoint as="offset" />
          </mxGeometry>
        </mxCell>
        <mxCell id="lEeLGfpVvQIhKDC0VNKP-16" value="" style="rhombus;whiteSpace=wrap;html=1;" vertex="1" parent="lEeLGfpVvQIhKDC0VNKP-8">
          <mxGeometry x="115.5" y="392" width="80" height="58" as="geometry" />
        </mxCell>
        <mxCell id="lEeLGfpVvQIhKDC0VNKP-17" value="Menampilkan Pesan Error Login" style="rounded=0;whiteSpace=wrap;html=1;" vertex="1" parent="lEeLGfpVvQIhKDC0VNKP-8">
          <mxGeometry x="20.5" y="482" width="120" height="48" as="geometry" />
        </mxCell>
        <mxCell id="lEeLGfpVvQIhKDC0VNKP-18" value="Menampilkan halaman utama" style="rounded=0;whiteSpace=wrap;html=1;" vertex="1" parent="lEeLGfpVvQIhKDC0VNKP-8">
          <mxGeometry x="175.5" y="482" width="120" height="48" as="geometry" />
        </mxCell>
        <mxCell id="lEeLGfpVvQIhKDC0VNKP-21" value="Menampilkan halaman jadwal pelajaran" style="rounded=0;whiteSpace=wrap;html=1;" vertex="1" parent="lEeLGfpVvQIhKDC0VNKP-8">
          <mxGeometry x="95.5" y="692" width="120" height="60" as="geometry" />
        </mxCell>
        <mxCell id="lEeLGfpVvQIhKDC0VNKP-23" style="edgeStyle=orthogonalEdgeStyle;rounded=0;orthogonalLoop=1;jettySize=auto;html=1;" edge="1" parent="1" source="lEeLGfpVvQIhKDC0VNKP-4" target="lEeLGfpVvQIhKDC0VNKP-9">
          <mxGeometry relative="1" as="geometry" />
        </mxCell>
        <mxCell id="lEeLGfpVvQIhKDC0VNKP-24" style="edgeStyle=orthogonalEdgeStyle;rounded=0;orthogonalLoop=1;jettySize=auto;html=1;entryX=1;entryY=0.5;entryDx=0;entryDy=0;" edge="1" parent="1" source="lEeLGfpVvQIhKDC0VNKP-9" target="lEeLGfpVvQIhKDC0VNKP-5">
          <mxGeometry relative="1" as="geometry">
            <Array as="points">
              <mxPoint x="600" y="360" />
            </Array>
          </mxGeometry>
        </mxCell>
        <mxCell id="lEeLGfpVvQIhKDC0VNKP-25" style="edgeStyle=orthogonalEdgeStyle;rounded=0;orthogonalLoop=1;jettySize=auto;html=1;entryX=0;entryY=0.5;entryDx=0;entryDy=0;" edge="1" parent="1" source="lEeLGfpVvQIhKDC0VNKP-5" target="lEeLGfpVvQIhKDC0VNKP-11">
          <mxGeometry relative="1" as="geometry">
            <Array as="points">
              <mxPoint x="305" y="459" />
            </Array>
          </mxGeometry>
        </mxCell>
        <mxCell id="DnrRZG0hU6tQb1peSwa8-1" style="edgeStyle=orthogonalEdgeStyle;rounded=0;orthogonalLoop=1;jettySize=auto;html=1;entryX=1;entryY=0.5;entryDx=0;entryDy=0;" edge="1" parent="1" source="lEeLGfpVvQIhKDC0VNKP-18" target="lEeLGfpVvQIhKDC0VNKP-6">
          <mxGeometry relative="1" as="geometry">
            <Array as="points">
              <mxPoint x="680" y="704" />
            </Array>
          </mxGeometry>
        </mxCell>
        <mxCell id="DnrRZG0hU6tQb1peSwa8-2" style="edgeStyle=orthogonalEdgeStyle;rounded=0;orthogonalLoop=1;jettySize=auto;html=1;entryX=0;entryY=0.5;entryDx=0;entryDy=0;" edge="1" parent="1" source="lEeLGfpVvQIhKDC0VNKP-6" target="lEeLGfpVvQIhKDC0VNKP-21">
          <mxGeometry relative="1" as="geometry">
            <Array as="points">
              <mxPoint x="280" y="850" />
            </Array>
          </mxGeometry>
        </mxCell>
      </root>
    </mxGraphModel>
  </diagram>
  <diagram id="oced-kFqBh-p0T09ylpX" name="melihat data nilai">
    <mxGraphModel dx="980" dy="576" grid="1" gridSize="10" guides="1" tooltips="1" connect="1" arrows="1" fold="1" page="1" pageScale="1" pageWidth="850" pageHeight="1100" math="0" shadow="0">
      <root>
        <mxCell id="0" />
        <mxCell id="1" parent="0" />
        <mxCell id="76pWeOHy-YP5W9ZVlyfC-1" value="siswa" style="swimlane;whiteSpace=wrap;fontStyle=0" vertex="1" parent="1">
          <mxGeometry x="150" y="128" width="300" height="1100" as="geometry" />
        </mxCell>
        <mxCell id="76pWeOHy-YP5W9ZVlyfC-2" style="edgeStyle=orthogonalEdgeStyle;rounded=0;orthogonalLoop=1;jettySize=auto;html=1;exitX=0.5;exitY=1;exitDx=0;exitDy=0;entryX=0.5;entryY=0;entryDx=0;entryDy=0;" edge="1" parent="76pWeOHy-YP5W9ZVlyfC-1" source="76pWeOHy-YP5W9ZVlyfC-3" target="76pWeOHy-YP5W9ZVlyfC-4">
          <mxGeometry relative="1" as="geometry" />
        </mxCell>
        <mxCell id="76pWeOHy-YP5W9ZVlyfC-3" value="" style="ellipse;shape=startState;fillColor=#000000;strokeColor=#ff0000;" vertex="1" parent="76pWeOHy-YP5W9ZVlyfC-1">
          <mxGeometry x="120" y="40" width="40" height="40" as="geometry" />
        </mxCell>
        <mxCell id="76pWeOHy-YP5W9ZVlyfC-4" value="Membuka Website &quot;Smart School&quot;" style="rounded=0;whiteSpace=wrap;html=1;" vertex="1" parent="76pWeOHy-YP5W9ZVlyfC-1">
          <mxGeometry x="80" y="110" width="120" height="60" as="geometry" />
        </mxCell>
        <mxCell id="76pWeOHy-YP5W9ZVlyfC-5" value="siswa melakukan login" style="rounded=0;whiteSpace=wrap;html=1;" vertex="1" parent="76pWeOHy-YP5W9ZVlyfC-1">
          <mxGeometry x="80" y="202" width="120" height="60" as="geometry" />
        </mxCell>
        <mxCell id="76pWeOHy-YP5W9ZVlyfC-6" value="membuka halaman meihat nilai" style="rounded=0;whiteSpace=wrap;html=1;" vertex="1" parent="76pWeOHy-YP5W9ZVlyfC-1">
          <mxGeometry x="75.5" y="552" width="120" height="48" as="geometry" />
        </mxCell>
        <mxCell id="76pWeOHy-YP5W9ZVlyfC-7" value="&lt;span style=&quot;font-size:11.0pt;line-height:107%;&lt;br/&gt;font-family:&amp;quot;Calibri&amp;quot;,sans-serif;mso-fareast-font-family:Calibri;mso-ansi-language:&lt;br/&gt;EN-US;mso-fareast-language:EN-US;mso-bidi-language:AR-SA&quot;&gt;Siswa Meimlih&lt;br/&gt;Pelajaran yang ingin dilihatnya&lt;/span&gt;" style="rounded=0;whiteSpace=wrap;html=1;" vertex="1" parent="76pWeOHy-YP5W9ZVlyfC-1">
          <mxGeometry x="75.5" y="702" width="120" height="60" as="geometry" />
        </mxCell>
        <mxCell id="FMAh5PS0P-0VF8EZnRjU-1" value="SISTEM" style="swimlane;whiteSpace=wrap" vertex="1" parent="1">
          <mxGeometry x="450" y="128" width="310" height="1092" as="geometry" />
        </mxCell>
        <mxCell id="FMAh5PS0P-0VF8EZnRjU-2" value="Menampilkan Halaman Website Smart School" style="rounded=0;whiteSpace=wrap;html=1;" vertex="1" parent="FMAh5PS0P-0VF8EZnRjU-1">
          <mxGeometry x="95.5" y="102" width="120" height="60" as="geometry" />
        </mxCell>
        <mxCell id="FMAh5PS0P-0VF8EZnRjU-3" style="edgeStyle=orthogonalEdgeStyle;rounded=0;orthogonalLoop=1;jettySize=auto;html=1;exitX=0.5;exitY=1;exitDx=0;exitDy=0;entryX=0.5;entryY=0;entryDx=0;entryDy=0;" edge="1" parent="FMAh5PS0P-0VF8EZnRjU-1" source="FMAh5PS0P-0VF8EZnRjU-4" target="FMAh5PS0P-0VF8EZnRjU-9">
          <mxGeometry relative="1" as="geometry" />
        </mxCell>
        <mxCell id="FMAh5PS0P-0VF8EZnRjU-4" value="Validasi Data" style="rounded=0;whiteSpace=wrap;html=1;" vertex="1" parent="FMAh5PS0P-0VF8EZnRjU-1">
          <mxGeometry x="95.5" y="312" width="120" height="38" as="geometry" />
        </mxCell>
        <mxCell id="FMAh5PS0P-0VF8EZnRjU-5" style="edgeStyle=orthogonalEdgeStyle;rounded=0;orthogonalLoop=1;jettySize=auto;html=1;exitX=0;exitY=0.5;exitDx=0;exitDy=0;" edge="1" parent="FMAh5PS0P-0VF8EZnRjU-1" source="FMAh5PS0P-0VF8EZnRjU-9">
          <mxGeometry relative="1" as="geometry">
            <mxPoint x="75.5" y="482.0000000000001" as="targetPoint" />
          </mxGeometry>
        </mxCell>
        <mxCell id="FMAh5PS0P-0VF8EZnRjU-6" value="Salah" style="edgeLabel;html=1;align=center;verticalAlign=middle;resizable=0;points=[];" connectable="0" vertex="1" parent="FMAh5PS0P-0VF8EZnRjU-5">
          <mxGeometry x="0.2864" relative="1" as="geometry">
            <mxPoint as="offset" />
          </mxGeometry>
        </mxCell>
        <mxCell id="FMAh5PS0P-0VF8EZnRjU-7" style="edgeStyle=orthogonalEdgeStyle;rounded=0;orthogonalLoop=1;jettySize=auto;html=1;exitX=1;exitY=0.5;exitDx=0;exitDy=0;" edge="1" parent="FMAh5PS0P-0VF8EZnRjU-1" source="FMAh5PS0P-0VF8EZnRjU-9">
          <mxGeometry relative="1" as="geometry">
            <mxPoint x="235.5" y="482.0000000000001" as="targetPoint" />
          </mxGeometry>
        </mxCell>
        <mxCell id="FMAh5PS0P-0VF8EZnRjU-8" value="Benar" style="edgeLabel;html=1;align=center;verticalAlign=middle;resizable=0;points=[];" connectable="0" vertex="1" parent="FMAh5PS0P-0VF8EZnRjU-7">
          <mxGeometry x="0.3393" relative="1" as="geometry">
            <mxPoint as="offset" />
          </mxGeometry>
        </mxCell>
        <mxCell id="FMAh5PS0P-0VF8EZnRjU-9" value="" style="rhombus;whiteSpace=wrap;html=1;" vertex="1" parent="FMAh5PS0P-0VF8EZnRjU-1">
          <mxGeometry x="115.5" y="392" width="80" height="58" as="geometry" />
        </mxCell>
        <mxCell id="FMAh5PS0P-0VF8EZnRjU-10" value="Menampilkan Pesan Error Login" style="rounded=0;whiteSpace=wrap;html=1;" vertex="1" parent="FMAh5PS0P-0VF8EZnRjU-1">
          <mxGeometry x="20.5" y="482" width="120" height="48" as="geometry" />
        </mxCell>
        <mxCell id="FMAh5PS0P-0VF8EZnRjU-11" value="Menampilkan Dashalaman utama" style="rounded=0;whiteSpace=wrap;html=1;" vertex="1" parent="FMAh5PS0P-0VF8EZnRjU-1">
          <mxGeometry x="175.5" y="482" width="120" height="48" as="geometry" />
        </mxCell>
        <mxCell id="FMAh5PS0P-0VF8EZnRjU-12" value="Menampilkan Halaman lihat nilail" style="rounded=0;whiteSpace=wrap;html=1;" vertex="1" parent="FMAh5PS0P-0VF8EZnRjU-1">
          <mxGeometry x="115.5" y="622" width="120" height="60" as="geometry" />
        </mxCell>
        <mxCell id="MGSRflHnlxZant6BU8A7-5" value="" style="edgeStyle=orthogonalEdgeStyle;rounded=0;orthogonalLoop=1;jettySize=auto;html=1;" edge="1" parent="FMAh5PS0P-0VF8EZnRjU-1" source="FMAh5PS0P-0VF8EZnRjU-14" target="MGSRflHnlxZant6BU8A7-4">
          <mxGeometry relative="1" as="geometry" />
        </mxCell>
        <mxCell id="FMAh5PS0P-0VF8EZnRjU-14" value="menerima permintaan nilai" style="rounded=0;whiteSpace=wrap;html=1;" vertex="1" parent="FMAh5PS0P-0VF8EZnRjU-1">
          <mxGeometry x="110" y="742" width="120" height="60" as="geometry" />
        </mxCell>
        <mxCell id="MGSRflHnlxZant6BU8A7-7" value="" style="edgeStyle=orthogonalEdgeStyle;rounded=0;orthogonalLoop=1;jettySize=auto;html=1;" edge="1" parent="FMAh5PS0P-0VF8EZnRjU-1" source="MGSRflHnlxZant6BU8A7-3" target="FMAh5PS0P-0VF8EZnRjU-15">
          <mxGeometry relative="1" as="geometry" />
        </mxCell>
        <mxCell id="MGSRflHnlxZant6BU8A7-3" value="menampilkan data nilai ke siswa" style="rounded=0;whiteSpace=wrap;html=1;" vertex="1" parent="FMAh5PS0P-0VF8EZnRjU-1">
          <mxGeometry x="110" y="932" width="120" height="60" as="geometry" />
        </mxCell>
        <mxCell id="FMAh5PS0P-0VF8EZnRjU-15" value="" style="ellipse;shape=startState;fillColor=#000000;strokeColor=#ff0000;" vertex="1" parent="FMAh5PS0P-0VF8EZnRjU-1">
          <mxGeometry x="150" y="1042" width="40" height="40" as="geometry" />
        </mxCell>
        <mxCell id="MGSRflHnlxZant6BU8A7-6" value="" style="edgeStyle=orthogonalEdgeStyle;rounded=0;orthogonalLoop=1;jettySize=auto;html=1;" edge="1" parent="FMAh5PS0P-0VF8EZnRjU-1" source="MGSRflHnlxZant6BU8A7-4" target="MGSRflHnlxZant6BU8A7-3">
          <mxGeometry relative="1" as="geometry" />
        </mxCell>
        <mxCell id="MGSRflHnlxZant6BU8A7-4" value="mengambil data nilai dari database" style="rounded=0;whiteSpace=wrap;html=1;" vertex="1" parent="FMAh5PS0P-0VF8EZnRjU-1">
          <mxGeometry x="110" y="842" width="120" height="60" as="geometry" />
        </mxCell>
        <mxCell id="MGSRflHnlxZant6BU8A7-9" style="edgeStyle=orthogonalEdgeStyle;rounded=0;orthogonalLoop=1;jettySize=auto;html=1;entryX=0;entryY=0.5;entryDx=0;entryDy=0;" edge="1" parent="1" source="76pWeOHy-YP5W9ZVlyfC-4" target="FMAh5PS0P-0VF8EZnRjU-2">
          <mxGeometry relative="1" as="geometry" />
        </mxCell>
        <mxCell id="MGSRflHnlxZant6BU8A7-10" style="edgeStyle=orthogonalEdgeStyle;rounded=0;orthogonalLoop=1;jettySize=auto;html=1;entryX=1;entryY=0.5;entryDx=0;entryDy=0;" edge="1" parent="1" source="FMAh5PS0P-0VF8EZnRjU-2" target="76pWeOHy-YP5W9ZVlyfC-5">
          <mxGeometry relative="1" as="geometry">
            <Array as="points">
              <mxPoint x="600" y="352" />
            </Array>
          </mxGeometry>
        </mxCell>
        <mxCell id="MGSRflHnlxZant6BU8A7-11" style="edgeStyle=orthogonalEdgeStyle;rounded=0;orthogonalLoop=1;jettySize=auto;html=1;entryX=0;entryY=0.5;entryDx=0;entryDy=0;" edge="1" parent="1" source="76pWeOHy-YP5W9ZVlyfC-5" target="FMAh5PS0P-0VF8EZnRjU-4">
          <mxGeometry relative="1" as="geometry">
            <Array as="points">
              <mxPoint x="305" y="459" />
            </Array>
          </mxGeometry>
        </mxCell>
        <mxCell id="MGSRflHnlxZant6BU8A7-12" style="edgeStyle=orthogonalEdgeStyle;rounded=0;orthogonalLoop=1;jettySize=auto;html=1;entryX=1;entryY=0.5;entryDx=0;entryDy=0;" edge="1" parent="1" source="FMAh5PS0P-0VF8EZnRjU-11" target="76pWeOHy-YP5W9ZVlyfC-6">
          <mxGeometry relative="1" as="geometry">
            <Array as="points">
              <mxPoint x="680" y="696" />
            </Array>
          </mxGeometry>
        </mxCell>
        <mxCell id="MGSRflHnlxZant6BU8A7-13" style="edgeStyle=orthogonalEdgeStyle;rounded=0;orthogonalLoop=1;jettySize=auto;html=1;entryX=0;entryY=0.5;entryDx=0;entryDy=0;" edge="1" parent="1" source="76pWeOHy-YP5W9ZVlyfC-6" target="FMAh5PS0P-0VF8EZnRjU-12">
          <mxGeometry relative="1" as="geometry">
            <Array as="points">
              <mxPoint x="300" y="780" />
            </Array>
          </mxGeometry>
        </mxCell>
        <mxCell id="MGSRflHnlxZant6BU8A7-14" style="edgeStyle=orthogonalEdgeStyle;rounded=0;orthogonalLoop=1;jettySize=auto;html=1;entryX=1;entryY=0.5;entryDx=0;entryDy=0;" edge="1" parent="1" source="FMAh5PS0P-0VF8EZnRjU-12" target="76pWeOHy-YP5W9ZVlyfC-7">
          <mxGeometry relative="1" as="geometry">
            <Array as="points">
              <mxPoint x="630" y="852" />
            </Array>
          </mxGeometry>
        </mxCell>
        <mxCell id="MGSRflHnlxZant6BU8A7-16" style="edgeStyle=orthogonalEdgeStyle;rounded=0;orthogonalLoop=1;jettySize=auto;html=1;entryX=0;entryY=0.5;entryDx=0;entryDy=0;" edge="1" parent="1" source="76pWeOHy-YP5W9ZVlyfC-7" target="FMAh5PS0P-0VF8EZnRjU-14">
          <mxGeometry relative="1" as="geometry">
            <Array as="points">
              <mxPoint x="290" y="900" />
            </Array>
          </mxGeometry>
        </mxCell>
      </root>
    </mxGraphModel>
  </diagram>
  <diagram id="Is_mq_ez6tidEPasBIT-" name="melihat data nilai">
    <mxGraphModel dx="770" dy="453" grid="1" gridSize="10" guides="1" tooltips="1" connect="1" arrows="1" fold="1" page="1" pageScale="1" pageWidth="850" pageHeight="1100" math="0" shadow="0">
      <root>
        <mxCell id="0" />
        <mxCell id="1" parent="0" />
        <mxCell id="LBRGKFVxJXM9gH0oETDG-1" value="siswa " style="swimlane;whiteSpace=wrap;fontStyle=0" vertex="1" parent="1">
          <mxGeometry x="130" y="128" width="314.5" height="1272" as="geometry" />
        </mxCell>
        <mxCell id="LBRGKFVxJXM9gH0oETDG-2" style="edgeStyle=orthogonalEdgeStyle;rounded=0;orthogonalLoop=1;jettySize=auto;html=1;exitX=0.5;exitY=1;exitDx=0;exitDy=0;entryX=0.5;entryY=0;entryDx=0;entryDy=0;" edge="1" parent="LBRGKFVxJXM9gH0oETDG-1" source="LBRGKFVxJXM9gH0oETDG-3" target="LBRGKFVxJXM9gH0oETDG-4">
          <mxGeometry relative="1" as="geometry" />
        </mxCell>
        <mxCell id="LBRGKFVxJXM9gH0oETDG-3" value="" style="ellipse;shape=startState;fillColor=#000000;strokeColor=#ff0000;" vertex="1" parent="LBRGKFVxJXM9gH0oETDG-1">
          <mxGeometry x="120" y="40" width="40" height="40" as="geometry" />
        </mxCell>
        <mxCell id="LBRGKFVxJXM9gH0oETDG-4" value="Membuka Website &quot;Smart School&quot;" style="rounded=0;whiteSpace=wrap;html=1;" vertex="1" parent="LBRGKFVxJXM9gH0oETDG-1">
          <mxGeometry x="80" y="102" width="120" height="60" as="geometry" />
        </mxCell>
        <mxCell id="LBRGKFVxJXM9gH0oETDG-5" value="siswa melakukan login" style="rounded=0;whiteSpace=wrap;html=1;" vertex="1" parent="LBRGKFVxJXM9gH0oETDG-1">
          <mxGeometry x="80" y="202" width="120" height="60" as="geometry" />
        </mxCell>
        <mxCell id="LBRGKFVxJXM9gH0oETDG-6" value="membuka halaman utama materi pelajaran" style="rounded=0;whiteSpace=wrap;html=1;" vertex="1" parent="LBRGKFVxJXM9gH0oETDG-1">
          <mxGeometry x="75.5" y="552" width="120" height="48" as="geometry" />
        </mxCell>
        <mxCell id="LBRGKFVxJXM9gH0oETDG-7" value="siswa memilih materi pelajaran yang ingin dilihat" style="rounded=0;whiteSpace=wrap;html=1;" vertex="1" parent="LBRGKFVxJXM9gH0oETDG-1">
          <mxGeometry x="75.5" y="702" width="120" height="60" as="geometry" />
        </mxCell>
        <mxCell id="LBRGKFVxJXM9gH0oETDG-8" value="SISTEM" style="swimlane;whiteSpace=wrap" vertex="1" parent="1">
          <mxGeometry x="444.5" y="128" width="310" height="1272" as="geometry" />
        </mxCell>
        <mxCell id="LBRGKFVxJXM9gH0oETDG-9" value="Menampilkan Halaman Website Smart School" style="rounded=0;whiteSpace=wrap;html=1;" vertex="1" parent="LBRGKFVxJXM9gH0oETDG-8">
          <mxGeometry x="95.5" y="102" width="120" height="60" as="geometry" />
        </mxCell>
        <mxCell id="LBRGKFVxJXM9gH0oETDG-10" style="edgeStyle=orthogonalEdgeStyle;rounded=0;orthogonalLoop=1;jettySize=auto;html=1;exitX=0.5;exitY=1;exitDx=0;exitDy=0;entryX=0.5;entryY=0;entryDx=0;entryDy=0;" edge="1" parent="LBRGKFVxJXM9gH0oETDG-8" source="LBRGKFVxJXM9gH0oETDG-11" target="LBRGKFVxJXM9gH0oETDG-16">
          <mxGeometry relative="1" as="geometry" />
        </mxCell>
        <mxCell id="LBRGKFVxJXM9gH0oETDG-11" value="Validasi Data" style="rounded=0;whiteSpace=wrap;html=1;" vertex="1" parent="LBRGKFVxJXM9gH0oETDG-8">
          <mxGeometry x="95.5" y="312" width="120" height="38" as="geometry" />
        </mxCell>
        <mxCell id="LBRGKFVxJXM9gH0oETDG-12" style="edgeStyle=orthogonalEdgeStyle;rounded=0;orthogonalLoop=1;jettySize=auto;html=1;exitX=0;exitY=0.5;exitDx=0;exitDy=0;" edge="1" parent="LBRGKFVxJXM9gH0oETDG-8" source="LBRGKFVxJXM9gH0oETDG-16">
          <mxGeometry relative="1" as="geometry">
            <mxPoint x="75.5" y="482.0000000000001" as="targetPoint" />
          </mxGeometry>
        </mxCell>
        <mxCell id="LBRGKFVxJXM9gH0oETDG-13" value="Salah" style="edgeLabel;html=1;align=center;verticalAlign=middle;resizable=0;points=[];" connectable="0" vertex="1" parent="LBRGKFVxJXM9gH0oETDG-12">
          <mxGeometry x="0.2864" relative="1" as="geometry">
            <mxPoint as="offset" />
          </mxGeometry>
        </mxCell>
        <mxCell id="LBRGKFVxJXM9gH0oETDG-14" style="edgeStyle=orthogonalEdgeStyle;rounded=0;orthogonalLoop=1;jettySize=auto;html=1;exitX=1;exitY=0.5;exitDx=0;exitDy=0;" edge="1" parent="LBRGKFVxJXM9gH0oETDG-8" source="LBRGKFVxJXM9gH0oETDG-16">
          <mxGeometry relative="1" as="geometry">
            <mxPoint x="235.5" y="482.0000000000001" as="targetPoint" />
          </mxGeometry>
        </mxCell>
        <mxCell id="LBRGKFVxJXM9gH0oETDG-15" value="Benar" style="edgeLabel;html=1;align=center;verticalAlign=middle;resizable=0;points=[];" connectable="0" vertex="1" parent="LBRGKFVxJXM9gH0oETDG-14">
          <mxGeometry x="0.3393" relative="1" as="geometry">
            <mxPoint as="offset" />
          </mxGeometry>
        </mxCell>
        <mxCell id="LBRGKFVxJXM9gH0oETDG-16" value="" style="rhombus;whiteSpace=wrap;html=1;" vertex="1" parent="LBRGKFVxJXM9gH0oETDG-8">
          <mxGeometry x="115.5" y="392" width="80" height="58" as="geometry" />
        </mxCell>
        <mxCell id="LBRGKFVxJXM9gH0oETDG-17" value="Menampilkan Pesan Error Login" style="rounded=0;whiteSpace=wrap;html=1;" vertex="1" parent="LBRGKFVxJXM9gH0oETDG-8">
          <mxGeometry x="20.5" y="482" width="120" height="48" as="geometry" />
        </mxCell>
        <mxCell id="LBRGKFVxJXM9gH0oETDG-18" value="menampilkan halaman utama siswa" style="rounded=0;whiteSpace=wrap;html=1;" vertex="1" parent="LBRGKFVxJXM9gH0oETDG-8">
          <mxGeometry x="175.5" y="482" width="120" height="48" as="geometry" />
        </mxCell>
        <mxCell id="LBRGKFVxJXM9gH0oETDG-19" value="enampilkan halaman materi pelajaran" style="rounded=0;whiteSpace=wrap;html=1;" vertex="1" parent="LBRGKFVxJXM9gH0oETDG-8">
          <mxGeometry x="115.5" y="622" width="120" height="60" as="geometry" />
        </mxCell>
        <mxCell id="LBRGKFVxJXM9gH0oETDG-35" value="" style="edgeStyle=orthogonalEdgeStyle;rounded=0;orthogonalLoop=1;jettySize=auto;html=1;" edge="1" parent="LBRGKFVxJXM9gH0oETDG-8" source="LBRGKFVxJXM9gH0oETDG-21" target="LBRGKFVxJXM9gH0oETDG-30">
          <mxGeometry relative="1" as="geometry" />
        </mxCell>
        <mxCell id="LBRGKFVxJXM9gH0oETDG-21" value="menerima permintaaan materi pelajaran" style="rounded=0;whiteSpace=wrap;html=1;" vertex="1" parent="LBRGKFVxJXM9gH0oETDG-8">
          <mxGeometry x="115.5" y="792" width="120" height="60" as="geometry" />
        </mxCell>
        <mxCell id="LBRGKFVxJXM9gH0oETDG-22" value="" style="ellipse;shape=startState;fillColor=#000000;strokeColor=#ff0000;" vertex="1" parent="LBRGKFVxJXM9gH0oETDG-8">
          <mxGeometry x="155.5" y="1152" width="40" height="40" as="geometry" />
        </mxCell>
        <mxCell id="LBRGKFVxJXM9gH0oETDG-34" value="" style="edgeStyle=orthogonalEdgeStyle;rounded=0;orthogonalLoop=1;jettySize=auto;html=1;" edge="1" parent="LBRGKFVxJXM9gH0oETDG-8" source="LBRGKFVxJXM9gH0oETDG-30" target="LBRGKFVxJXM9gH0oETDG-31">
          <mxGeometry relative="1" as="geometry" />
        </mxCell>
        <mxCell id="LBRGKFVxJXM9gH0oETDG-30" value="mengambil data dari materi pelajaran ke database" style="rounded=0;whiteSpace=wrap;html=1;" vertex="1" parent="LBRGKFVxJXM9gH0oETDG-8">
          <mxGeometry x="115.5" y="912" width="120" height="60" as="geometry" />
        </mxCell>
        <mxCell id="LBRGKFVxJXM9gH0oETDG-33" value="" style="edgeStyle=orthogonalEdgeStyle;rounded=0;orthogonalLoop=1;jettySize=auto;html=1;" edge="1" parent="LBRGKFVxJXM9gH0oETDG-8" source="LBRGKFVxJXM9gH0oETDG-31" target="LBRGKFVxJXM9gH0oETDG-22">
          <mxGeometry relative="1" as="geometry" />
        </mxCell>
        <mxCell id="LBRGKFVxJXM9gH0oETDG-31" value="menampilkan&amp;nbsp; materi pelajaran kepada siswa" style="rounded=0;whiteSpace=wrap;html=1;" vertex="1" parent="LBRGKFVxJXM9gH0oETDG-8">
          <mxGeometry x="115.5" y="1032" width="120" height="60" as="geometry" />
        </mxCell>
        <mxCell id="LBRGKFVxJXM9gH0oETDG-23" style="edgeStyle=orthogonalEdgeStyle;rounded=0;orthogonalLoop=1;jettySize=auto;html=1;" edge="1" parent="1" source="LBRGKFVxJXM9gH0oETDG-4" target="LBRGKFVxJXM9gH0oETDG-9">
          <mxGeometry relative="1" as="geometry" />
        </mxCell>
        <mxCell id="LBRGKFVxJXM9gH0oETDG-24" style="edgeStyle=orthogonalEdgeStyle;rounded=0;orthogonalLoop=1;jettySize=auto;html=1;entryX=1;entryY=0.5;entryDx=0;entryDy=0;" edge="1" parent="1" source="LBRGKFVxJXM9gH0oETDG-9" target="LBRGKFVxJXM9gH0oETDG-5">
          <mxGeometry relative="1" as="geometry">
            <Array as="points">
              <mxPoint x="600" y="360" />
            </Array>
          </mxGeometry>
        </mxCell>
        <mxCell id="LBRGKFVxJXM9gH0oETDG-25" style="edgeStyle=orthogonalEdgeStyle;rounded=0;orthogonalLoop=1;jettySize=auto;html=1;entryX=1;entryY=0.5;entryDx=0;entryDy=0;" edge="1" parent="1" source="LBRGKFVxJXM9gH0oETDG-18" target="LBRGKFVxJXM9gH0oETDG-6">
          <mxGeometry relative="1" as="geometry">
            <Array as="points">
              <mxPoint x="680" y="704" />
            </Array>
          </mxGeometry>
        </mxCell>
        <mxCell id="LBRGKFVxJXM9gH0oETDG-26" style="edgeStyle=orthogonalEdgeStyle;rounded=0;orthogonalLoop=1;jettySize=auto;html=1;entryX=0;entryY=0.5;entryDx=0;entryDy=0;" edge="1" parent="1" source="LBRGKFVxJXM9gH0oETDG-5" target="LBRGKFVxJXM9gH0oETDG-11">
          <mxGeometry relative="1" as="geometry">
            <Array as="points">
              <mxPoint x="305" y="459" />
            </Array>
          </mxGeometry>
        </mxCell>
        <mxCell id="LBRGKFVxJXM9gH0oETDG-27" style="edgeStyle=orthogonalEdgeStyle;rounded=0;orthogonalLoop=1;jettySize=auto;html=1;entryX=0;entryY=0.5;entryDx=0;entryDy=0;" edge="1" parent="1" source="LBRGKFVxJXM9gH0oETDG-6" target="LBRGKFVxJXM9gH0oETDG-19">
          <mxGeometry relative="1" as="geometry">
            <Array as="points">
              <mxPoint x="300" y="780" />
            </Array>
          </mxGeometry>
        </mxCell>
        <mxCell id="LBRGKFVxJXM9gH0oETDG-28" style="edgeStyle=orthogonalEdgeStyle;rounded=0;orthogonalLoop=1;jettySize=auto;html=1;entryX=1;entryY=0.5;entryDx=0;entryDy=0;" edge="1" parent="1" source="LBRGKFVxJXM9gH0oETDG-19" target="LBRGKFVxJXM9gH0oETDG-7">
          <mxGeometry relative="1" as="geometry">
            <Array as="points">
              <mxPoint x="620" y="860" />
            </Array>
          </mxGeometry>
        </mxCell>
        <mxCell id="LBRGKFVxJXM9gH0oETDG-29" style="edgeStyle=orthogonalEdgeStyle;rounded=0;orthogonalLoop=1;jettySize=auto;html=1;entryX=0;entryY=0.5;entryDx=0;entryDy=0;" edge="1" parent="1" source="LBRGKFVxJXM9gH0oETDG-7" target="LBRGKFVxJXM9gH0oETDG-21">
          <mxGeometry relative="1" as="geometry">
            <Array as="points">
              <mxPoint x="300" y="950" />
            </Array>
          </mxGeometry>
        </mxCell>
      </root>
    </mxGraphModel>
  </diagram>
  <diagram id="-GoHEfBqHFFsnJml4YXY" name="mengakses data nilai">
    <mxGraphModel dx="770" dy="453" grid="1" gridSize="10" guides="1" tooltips="1" connect="1" arrows="1" fold="1" page="1" pageScale="1" pageWidth="850" pageHeight="1100" math="0" shadow="0">
      <root>
        <mxCell id="0" />
        <mxCell id="1" parent="0" />
        <mxCell id="uCsManTgkeHsQME04rSo-1" value="siswa " style="swimlane;whiteSpace=wrap;fontStyle=0" vertex="1" parent="1">
          <mxGeometry x="130" y="128" width="314.5" height="1272" as="geometry" />
        </mxCell>
        <mxCell id="uCsManTgkeHsQME04rSo-2" style="edgeStyle=orthogonalEdgeStyle;rounded=0;orthogonalLoop=1;jettySize=auto;html=1;exitX=0.5;exitY=1;exitDx=0;exitDy=0;entryX=0.5;entryY=0;entryDx=0;entryDy=0;" edge="1" parent="uCsManTgkeHsQME04rSo-1" source="uCsManTgkeHsQME04rSo-3" target="uCsManTgkeHsQME04rSo-4">
          <mxGeometry relative="1" as="geometry" />
        </mxCell>
        <mxCell id="uCsManTgkeHsQME04rSo-3" value="" style="ellipse;shape=startState;fillColor=#000000;strokeColor=#ff0000;" vertex="1" parent="uCsManTgkeHsQME04rSo-1">
          <mxGeometry x="120" y="40" width="40" height="40" as="geometry" />
        </mxCell>
        <mxCell id="uCsManTgkeHsQME04rSo-4" value="Membuka Website &quot;Smart School&quot;" style="rounded=0;whiteSpace=wrap;html=1;" vertex="1" parent="uCsManTgkeHsQME04rSo-1">
          <mxGeometry x="80" y="102" width="120" height="60" as="geometry" />
        </mxCell>
        <mxCell id="uCsManTgkeHsQME04rSo-5" value="siswa melakukan login" style="rounded=0;whiteSpace=wrap;html=1;" vertex="1" parent="uCsManTgkeHsQME04rSo-1">
          <mxGeometry x="80" y="202" width="120" height="60" as="geometry" />
        </mxCell>
        <mxCell id="uCsManTgkeHsQME04rSo-6" value="memilih mmenu forum diskusi" style="rounded=0;whiteSpace=wrap;html=1;" vertex="1" parent="uCsManTgkeHsQME04rSo-1">
          <mxGeometry x="75.5" y="552" width="120" height="48" as="geometry" />
        </mxCell>
        <mxCell id="uCsManTgkeHsQME04rSo-7" value="siswa memilih topik&amp;nbsp; diskusi" style="rounded=0;whiteSpace=wrap;html=1;" vertex="1" parent="uCsManTgkeHsQME04rSo-1">
          <mxGeometry x="75.5" y="702" width="120" height="60" as="geometry" />
        </mxCell>
        <mxCell id="OwLASNeuWfuauDnsw8ZB-1" value="megikuti atau membuat postingan dalam diskusi" style="rounded=0;whiteSpace=wrap;html=1;" vertex="1" parent="uCsManTgkeHsQME04rSo-1">
          <mxGeometry x="70" y="912" width="120" height="60" as="geometry" />
        </mxCell>
        <mxCell id="zC_iUW6Nebk00DL77Mfq-1" value="SISTEM" style="swimlane;whiteSpace=wrap" vertex="1" parent="1">
          <mxGeometry x="444.5" y="128" width="310" height="1272" as="geometry" />
        </mxCell>
        <mxCell id="zC_iUW6Nebk00DL77Mfq-2" value="Menampilkan Halaman Website Smart School" style="rounded=0;whiteSpace=wrap;html=1;" vertex="1" parent="zC_iUW6Nebk00DL77Mfq-1">
          <mxGeometry x="95.5" y="102" width="120" height="60" as="geometry" />
        </mxCell>
        <mxCell id="zC_iUW6Nebk00DL77Mfq-3" style="edgeStyle=orthogonalEdgeStyle;rounded=0;orthogonalLoop=1;jettySize=auto;html=1;exitX=0.5;exitY=1;exitDx=0;exitDy=0;entryX=0.5;entryY=0;entryDx=0;entryDy=0;" edge="1" parent="zC_iUW6Nebk00DL77Mfq-1" source="zC_iUW6Nebk00DL77Mfq-4" target="zC_iUW6Nebk00DL77Mfq-9">
          <mxGeometry relative="1" as="geometry" />
        </mxCell>
        <mxCell id="zC_iUW6Nebk00DL77Mfq-4" value="Validasi Data" style="rounded=0;whiteSpace=wrap;html=1;" vertex="1" parent="zC_iUW6Nebk00DL77Mfq-1">
          <mxGeometry x="95.5" y="312" width="120" height="38" as="geometry" />
        </mxCell>
        <mxCell id="zC_iUW6Nebk00DL77Mfq-5" style="edgeStyle=orthogonalEdgeStyle;rounded=0;orthogonalLoop=1;jettySize=auto;html=1;exitX=0;exitY=0.5;exitDx=0;exitDy=0;" edge="1" parent="zC_iUW6Nebk00DL77Mfq-1" source="zC_iUW6Nebk00DL77Mfq-9">
          <mxGeometry relative="1" as="geometry">
            <mxPoint x="75.5" y="482.0000000000001" as="targetPoint" />
          </mxGeometry>
        </mxCell>
        <mxCell id="zC_iUW6Nebk00DL77Mfq-6" value="Salah" style="edgeLabel;html=1;align=center;verticalAlign=middle;resizable=0;points=[];" connectable="0" vertex="1" parent="zC_iUW6Nebk00DL77Mfq-5">
          <mxGeometry x="0.2864" relative="1" as="geometry">
            <mxPoint as="offset" />
          </mxGeometry>
        </mxCell>
        <mxCell id="zC_iUW6Nebk00DL77Mfq-7" style="edgeStyle=orthogonalEdgeStyle;rounded=0;orthogonalLoop=1;jettySize=auto;html=1;exitX=1;exitY=0.5;exitDx=0;exitDy=0;" edge="1" parent="zC_iUW6Nebk00DL77Mfq-1" source="zC_iUW6Nebk00DL77Mfq-9">
          <mxGeometry relative="1" as="geometry">
            <mxPoint x="235.5" y="482.0000000000001" as="targetPoint" />
          </mxGeometry>
        </mxCell>
        <mxCell id="zC_iUW6Nebk00DL77Mfq-8" value="Benar" style="edgeLabel;html=1;align=center;verticalAlign=middle;resizable=0;points=[];" connectable="0" vertex="1" parent="zC_iUW6Nebk00DL77Mfq-7">
          <mxGeometry x="0.3393" relative="1" as="geometry">
            <mxPoint as="offset" />
          </mxGeometry>
        </mxCell>
        <mxCell id="zC_iUW6Nebk00DL77Mfq-9" value="" style="rhombus;whiteSpace=wrap;html=1;" vertex="1" parent="zC_iUW6Nebk00DL77Mfq-1">
          <mxGeometry x="115.5" y="392" width="80" height="58" as="geometry" />
        </mxCell>
        <mxCell id="zC_iUW6Nebk00DL77Mfq-10" value="Menampilkan Pesan Error Login" style="rounded=0;whiteSpace=wrap;html=1;" vertex="1" parent="zC_iUW6Nebk00DL77Mfq-1">
          <mxGeometry x="20.5" y="482" width="120" height="48" as="geometry" />
        </mxCell>
        <mxCell id="zC_iUW6Nebk00DL77Mfq-11" value="menampilkan halaman utama siswa" style="rounded=0;whiteSpace=wrap;html=1;" vertex="1" parent="zC_iUW6Nebk00DL77Mfq-1">
          <mxGeometry x="175.5" y="482" width="120" height="48" as="geometry" />
        </mxCell>
        <mxCell id="zC_iUW6Nebk00DL77Mfq-12" value="menamilkan&amp;nbsp; halaman forum diskusi" style="rounded=0;whiteSpace=wrap;html=1;" vertex="1" parent="zC_iUW6Nebk00DL77Mfq-1">
          <mxGeometry x="115.5" y="622" width="120" height="60" as="geometry" />
        </mxCell>
        <mxCell id="zC_iUW6Nebk00DL77Mfq-13" value="" style="edgeStyle=orthogonalEdgeStyle;rounded=0;orthogonalLoop=1;jettySize=auto;html=1;" edge="1" parent="zC_iUW6Nebk00DL77Mfq-1" source="zC_iUW6Nebk00DL77Mfq-14" target="zC_iUW6Nebk00DL77Mfq-17">
          <mxGeometry relative="1" as="geometry" />
        </mxCell>
        <mxCell id="zC_iUW6Nebk00DL77Mfq-14" value="menerima permintaan untuk forum diskusi" style="rounded=0;whiteSpace=wrap;html=1;" vertex="1" parent="zC_iUW6Nebk00DL77Mfq-1">
          <mxGeometry x="115.5" y="792" width="120" height="60" as="geometry" />
        </mxCell>
        <mxCell id="zC_iUW6Nebk00DL77Mfq-15" value="" style="ellipse;shape=startState;fillColor=#000000;strokeColor=#ff0000;" vertex="1" parent="zC_iUW6Nebk00DL77Mfq-1">
          <mxGeometry x="155.5" y="1152" width="40" height="40" as="geometry" />
        </mxCell>
        <mxCell id="zC_iUW6Nebk00DL77Mfq-16" value="" style="edgeStyle=orthogonalEdgeStyle;rounded=0;orthogonalLoop=1;jettySize=auto;html=1;" edge="1" parent="zC_iUW6Nebk00DL77Mfq-1" source="zC_iUW6Nebk00DL77Mfq-17" target="zC_iUW6Nebk00DL77Mfq-19">
          <mxGeometry relative="1" as="geometry" />
        </mxCell>
        <mxCell id="zC_iUW6Nebk00DL77Mfq-17" value="mengambil dan menampilkan daftar topik diskusi" style="rounded=0;whiteSpace=wrap;html=1;" vertex="1" parent="zC_iUW6Nebk00DL77Mfq-1">
          <mxGeometry x="115.5" y="912" width="120" height="60" as="geometry" />
        </mxCell>
        <mxCell id="zC_iUW6Nebk00DL77Mfq-18" value="" style="edgeStyle=orthogonalEdgeStyle;rounded=0;orthogonalLoop=1;jettySize=auto;html=1;" edge="1" parent="zC_iUW6Nebk00DL77Mfq-1" source="zC_iUW6Nebk00DL77Mfq-19" target="zC_iUW6Nebk00DL77Mfq-15">
          <mxGeometry relative="1" as="geometry" />
        </mxCell>
        <mxCell id="zC_iUW6Nebk00DL77Mfq-19" value="memperoses dan menyimpan postingan baru atau batasan" style="rounded=0;whiteSpace=wrap;html=1;" vertex="1" parent="zC_iUW6Nebk00DL77Mfq-1">
          <mxGeometry x="115.5" y="1032" width="120" height="60" as="geometry" />
        </mxCell>
        <mxCell id="zC_iUW6Nebk00DL77Mfq-20" style="edgeStyle=orthogonalEdgeStyle;rounded=0;orthogonalLoop=1;jettySize=auto;html=1;entryX=0;entryY=0.5;entryDx=0;entryDy=0;" edge="1" parent="1" source="uCsManTgkeHsQME04rSo-4" target="zC_iUW6Nebk00DL77Mfq-2">
          <mxGeometry relative="1" as="geometry" />
        </mxCell>
        <mxCell id="zC_iUW6Nebk00DL77Mfq-21" style="edgeStyle=orthogonalEdgeStyle;rounded=0;orthogonalLoop=1;jettySize=auto;html=1;entryX=1;entryY=0.5;entryDx=0;entryDy=0;" edge="1" parent="1" source="zC_iUW6Nebk00DL77Mfq-2" target="uCsManTgkeHsQME04rSo-5">
          <mxGeometry relative="1" as="geometry">
            <Array as="points">
              <mxPoint x="600" y="360" />
            </Array>
          </mxGeometry>
        </mxCell>
        <mxCell id="zC_iUW6Nebk00DL77Mfq-22" style="edgeStyle=orthogonalEdgeStyle;rounded=0;orthogonalLoop=1;jettySize=auto;html=1;entryX=0;entryY=0.5;entryDx=0;entryDy=0;" edge="1" parent="1" source="uCsManTgkeHsQME04rSo-5" target="zC_iUW6Nebk00DL77Mfq-4">
          <mxGeometry relative="1" as="geometry">
            <Array as="points">
              <mxPoint x="280" y="459" />
            </Array>
          </mxGeometry>
        </mxCell>
        <mxCell id="zC_iUW6Nebk00DL77Mfq-23" style="edgeStyle=orthogonalEdgeStyle;rounded=0;orthogonalLoop=1;jettySize=auto;html=1;entryX=1;entryY=0.5;entryDx=0;entryDy=0;" edge="1" parent="1" source="zC_iUW6Nebk00DL77Mfq-11" target="uCsManTgkeHsQME04rSo-6">
          <mxGeometry relative="1" as="geometry">
            <Array as="points">
              <mxPoint x="680" y="704" />
            </Array>
          </mxGeometry>
        </mxCell>
        <mxCell id="OwLASNeuWfuauDnsw8ZB-2" style="edgeStyle=orthogonalEdgeStyle;rounded=0;orthogonalLoop=1;jettySize=auto;html=1;entryX=0;entryY=0.5;entryDx=0;entryDy=0;" edge="1" parent="1" source="uCsManTgkeHsQME04rSo-6" target="zC_iUW6Nebk00DL77Mfq-12">
          <mxGeometry relative="1" as="geometry">
            <Array as="points">
              <mxPoint x="270" y="780" />
            </Array>
          </mxGeometry>
        </mxCell>
        <mxCell id="OwLASNeuWfuauDnsw8ZB-3" style="edgeStyle=orthogonalEdgeStyle;rounded=0;orthogonalLoop=1;jettySize=auto;html=1;entryX=1;entryY=0.5;entryDx=0;entryDy=0;" edge="1" parent="1" source="zC_iUW6Nebk00DL77Mfq-12" target="uCsManTgkeHsQME04rSo-7">
          <mxGeometry relative="1" as="geometry">
            <Array as="points">
              <mxPoint x="610" y="860" />
            </Array>
          </mxGeometry>
        </mxCell>
        <mxCell id="OwLASNeuWfuauDnsw8ZB-4" style="edgeStyle=orthogonalEdgeStyle;rounded=0;orthogonalLoop=1;jettySize=auto;html=1;entryX=0;entryY=0.5;entryDx=0;entryDy=0;" edge="1" parent="1" source="uCsManTgkeHsQME04rSo-7" target="zC_iUW6Nebk00DL77Mfq-14">
          <mxGeometry relative="1" as="geometry">
            <Array as="points">
              <mxPoint x="270" y="950" />
            </Array>
          </mxGeometry>
        </mxCell>
        <mxCell id="OwLASNeuWfuauDnsw8ZB-5" style="edgeStyle=orthogonalEdgeStyle;rounded=0;orthogonalLoop=1;jettySize=auto;html=1;entryX=1;entryY=0.5;entryDx=0;entryDy=0;" edge="1" parent="1" source="zC_iUW6Nebk00DL77Mfq-17" target="OwLASNeuWfuauDnsw8ZB-1">
          <mxGeometry relative="1" as="geometry" />
        </mxCell>
        <mxCell id="OwLASNeuWfuauDnsw8ZB-6" style="edgeStyle=orthogonalEdgeStyle;rounded=0;orthogonalLoop=1;jettySize=auto;html=1;entryX=0;entryY=0.5;entryDx=0;entryDy=0;" edge="1" parent="1" source="OwLASNeuWfuauDnsw8ZB-1" target="zC_iUW6Nebk00DL77Mfq-19">
          <mxGeometry relative="1" as="geometry">
            <Array as="points">
              <mxPoint x="260" y="1190" />
            </Array>
          </mxGeometry>
        </mxCell>
      </root>
    </mxGraphModel>
  </diagram>
</mxfile>
